<svg id="Layer_1" data-name="Layer 1" xmlns="http://www.w3.org/2000/svg" width="1700" height="1080" viewBox="0 0 1700 1080"><defs><style>.cls-1{opacity:0.57;}.cls-2,.cls-4,.cls-5,.cls-6{fill:#fbb03b;}.cls-3{opacity:0.54;}.cls-4{opacity:0.4;}.cls-5{opacity:0.46;}.cls-6{opacity:0.48;}</style></defs><g class="cls-1"><circle class="cls-2" cx="850" cy="540" r="494"/></g><g class="cls-3"><circle class="cls-2" cx="850.5" cy="539.5" r="333.5"/></g><rect class="cls-4" x="187" y="291" width="50" height="696" rx="12"/><path class="cls-5" d="M178.53,291h66.74c98.52,0,93.11-199.57,93.11-199.57s-21.18-30.21-35.29,0c0,0-9.36,81.47-25.25,116.26,0,0-11.91,26.55-32.57,30.21,0,0-11.12-1.83-17.48-10.07l-.11-136.4s-16.53-27.47-30.85,0l-2.41,136.4s-23,26.55-47.67,4.58c0,0-33-89.72-29.62-141,0,0-16.76-29.3-31.7,0,0,0-5.41,199.57,93.1,199.57h66.74"/><rect class="cls-4" x="1475" y="397" width="38" height="601" rx="12"/><path class="cls-6" d="M1525.46,112.65s14.09,270-24.1,284.35h-26.12S1332.58,361.67,1528,46Z"/></svg>
