<svg id="Layer_1" data-name="Layer 1" xmlns="http://www.w3.org/2000/svg" width="800" height="800" viewBox="0 0 800 800"><defs><style>.cls-1{fill:#fbb03b;}.cls-2{fill:none;stroke:#fbb03b;stroke-miterlimit:10;}.cls-3{fill:#f7931e;}</style></defs><path class="cls-1" d="M236,468.05l36.8-6V170.85l-36.8-5.6v-8.8H358q43.2,0,68.8,8t37.2,24.2q11.6,16.2,11.6,42.6,0,57.6-72.8,73.6v2q44.4,6,69,26.4t24.6,56.8q0,44-32.2,65.2t-87,21.2H236Zm125.2-164.4q32,0,49.2-18t17.2-51.2v-2.4q0-65.6-69.6-65.6h-41.2v137.2Zm16,163.2q34,0,52.8-19.8t18.8-56.6v-4.4q0-36.39-18.6-54.4t-53-18h-60.4v153.2Z"/><path class="cls-2" d="M306.73,547.39l36.8-6V250.19l-36.8-5.6v-8.8h122q43.2,0,68.8,8t37.2,24.2q11.6,16.2,11.6,42.6,0,57.6-72.8,73.6v2q44.4,6,69,26.4t24.6,56.8q0,44-32.2,65.2t-87,21.2H306.73ZM431.93,383q32,0,49.2-18t17.2-51.2v-2.4q0-65.59-69.6-65.6h-41.2V383Zm16,163.2q34,0,52.8-19.8t18.8-56.6v-4.4q0-36.39-18.6-54.4t-53-18h-60.4v153.2Z"/><path class="cls-3" d="M210.16,616.43l4.6-.75v-36.4l-4.6-.7v-1.1h15.25a29.65,29.65,0,0,1,8.6,1,8.64,8.64,0,0,1,4.65,3,8.94,8.94,0,0,1,1.45,5.33q0,7.2-9.1,9.2v.25a16.79,16.79,0,0,1,8.62,3.3,8.71,8.71,0,0,1,3.08,7.1q0,5.49-4,8.15t-10.87,2.65H210.16Zm15.65-20.55a8.1,8.1,0,0,0,6.15-2.25,8.92,8.92,0,0,0,2.15-6.4v-.3q0-8.2-8.7-8.2h-5.15v17.15Zm2,20.4a8.68,8.68,0,0,0,6.6-2.48q2.35-2.47,2.35-7.07v-.55c0-3-.78-5.3-2.33-6.8a9.12,9.12,0,0,0-6.62-2.25h-7.55v19.15Z"/><path class="cls-3" d="M246.81,617.48v-1l3.5-.5V593.13l-3.5-.5v-1h8.5V616l3.5.5v1Zm2.9-32.68a3.17,3.17,0,0,1-1-2.37,3.13,3.13,0,0,1,1-2.35,3.32,3.32,0,0,1,2.43-1,3.1,3.1,0,0,1,2.3,1,3.19,3.19,0,0,1,1,2.35,3.28,3.28,0,0,1-1,2.37,3.09,3.09,0,0,1-2.3,1A3.33,3.33,0,0,1,249.71,584.8Z"/><path class="cls-3" d="M265,616.23a5.25,5.25,0,0,1-2.75-4.55,3.23,3.23,0,0,1,.77-2.28,2.72,2.72,0,0,1,2.08-.82,2.8,2.8,0,0,1,1.7.5,2.69,2.69,0,0,1,1,1.4,3.74,3.74,0,0,0-1.1,2.55,3.43,3.43,0,0,0,1.4,2.7,5.75,5.75,0,0,0,3.75,1.15,8.66,8.66,0,0,0,5.15-1.43,4.47,4.47,0,0,0,2-3.82,2.54,2.54,0,0,0-.85-2.1,12.49,12.49,0,0,0-3.3-1.6l-7.55-2.75q-4.46-1.6-4.45-5.95a7.62,7.62,0,0,1,2.45-5.83,9.51,9.51,0,0,1,6.75-2.27,11,11,0,0,1,6.07,1.62,5.18,5.18,0,0,1,2.53,4.63,2.77,2.77,0,0,1-.65,1.92,2.19,2.19,0,0,1-1.7.73,2.6,2.6,0,0,1-1.73-.58,2,2,0,0,1-.67-1.57,3,3,0,0,0,.9-1.08,3.35,3.35,0,0,0,.25-1.37,2.73,2.73,0,0,0-1.23-2.3,6.37,6.37,0,0,0-3.77-.9,9.57,9.57,0,0,0-3.78.67,5.46,5.46,0,0,0-2.37,1.78,3.8,3.8,0,0,0-.8,2.25,2.31,2.31,0,0,0,.87,1.9,12.74,12.74,0,0,0,3.23,1.55l7,2.5a8.06,8.06,0,0,1,3.7,2.5,6.55,6.55,0,0,1,1.25,4.15,8.41,8.41,0,0,1-2.3,6.05c-1.53,1.6-3.87,2.4-7,2.4A12.58,12.58,0,0,1,265,616.23Z"/><path class="cls-3" d="M290.08,616.33q-2-1.65-2-5.25v-18l-3.55-.5v-1h3.55v-4.15l5-1.25v5.4h6.5v1l-6.5.5V611q0,5.29,3.8,5.3a4.8,4.8,0,0,0,1.52-.25,7,7,0,0,0,1.15-.5,4.19,4.19,0,0,0,.53-.35l.65.8a7.87,7.87,0,0,1-5.4,2A8,8,0,0,1,290.08,616.33Z"/><path class="cls-3" d="M302.36,616.48l3.5-.5v-22.9l-3.5-.5v-1h8.5v3.85c2.1-2.87,4.46-4.3,7.1-4.3a5.88,5.88,0,0,1,3.35,1,3.17,3.17,0,0,1,1.45,2.78,3,3,0,0,1-3.1,3,3.17,3.17,0,0,1-2.6-1.25,2.44,2.44,0,0,0,.55-1.5,1.76,1.76,0,0,0-.58-1.38,2.16,2.16,0,0,0-1.52-.52,3.28,3.28,0,0,0-2.15,1,16.29,16.29,0,0,0-2.5,3V616l4,.5v1h-12.5Z"/><path class="cls-3" d="M331.16,616.3a12.21,12.21,0,0,1-4.68-4.75,14.1,14.1,0,0,1-1.72-7,13.94,13.94,0,0,1,1.72-7,12.23,12.23,0,0,1,4.68-4.73,13.68,13.68,0,0,1,13.1,0,12.27,12.27,0,0,1,4.67,4.73,14,14,0,0,1,1.73,7,14.1,14.1,0,0,1-1.73,7,12.26,12.26,0,0,1-4.67,4.75,13.61,13.61,0,0,1-13.1,0Zm12.12-2.12a12.32,12.32,0,0,0,1.88-7.15v-5a12.19,12.19,0,0,0-1.88-7.13,7.16,7.16,0,0,0-11.15,0,12.19,12.19,0,0,0-1.87,7.13v5a12.32,12.32,0,0,0,1.87,7.15,7.11,7.11,0,0,0,11.15,0Z"/><path class="cls-3" d="M366.76,616.43l4.6-.75v-36.4l-4.6-.7v-1.1H382a29.69,29.69,0,0,1,8.6,1,8.64,8.64,0,0,1,4.65,3,9,9,0,0,1,1.45,5.33q0,7.2-9.1,9.2v.25a16.79,16.79,0,0,1,8.62,3.3,8.71,8.71,0,0,1,3.08,7.1q0,5.49-4,8.15t-10.87,2.65H366.76Zm15.65-20.55a8.13,8.13,0,0,0,6.15-2.25,8.92,8.92,0,0,0,2.15-6.4v-.3q0-8.2-8.7-8.2h-5.15v17.15Zm2,20.4a8.68,8.68,0,0,0,6.6-2.48c1.56-1.65,2.35-4,2.35-7.07v-.55c0-3-.78-5.3-2.33-6.8a9.14,9.14,0,0,0-6.62-2.25h-7.55v19.15Z"/><path class="cls-3" d="M406.36,616.3a6,6,0,0,1-2.05-5,6.87,6.87,0,0,1,3.95-6.68,20.14,20.14,0,0,1,9.15-2h3.35v-3.85a11.2,11.2,0,0,0-.58-4,3.56,3.56,0,0,0-1.77-2,7.7,7.7,0,0,0-3.25-.57,5.48,5.48,0,0,0-3.5.92,3,3,0,0,0-1.15,2.48,1.83,1.83,0,0,0,1.4,1.9,3,3,0,0,1-1,2.2,3.11,3.11,0,0,1-2.25.95,3.18,3.18,0,0,1-2.25-.78,3.05,3.05,0,0,1-.85-2.37,5.24,5.24,0,0,1,2.9-4.65,13.78,13.78,0,0,1,7.25-1.75q10,0,10,8.7v14.3a2.6,2.6,0,0,0,.47,1.67,1.71,1.71,0,0,0,1.38.58,1.73,1.73,0,0,0,1.35-.58,2.33,2.33,0,0,0,.5-1.57h1.05a3.51,3.51,0,0,1-1.13,2.75,4.57,4.57,0,0,1-3.12,1,5.84,5.84,0,0,1-3.88-1.33,5.2,5.2,0,0,1-1.62-4.12,9,9,0,0,1-3.68,4,10.68,10.68,0,0,1-5.47,1.45A8,8,0,0,1,406.36,616.3ZM417.13,615a7.09,7.09,0,0,0,2.43-2.33,8.1,8.1,0,0,0,1.2-3.67v-5.2h-3.35c-2.74,0-4.78.6-6.13,1.82a6.56,6.56,0,0,0-2,5.13c0,1.83.43,3.13,1.3,3.9a5.59,5.59,0,0,0,3.8,1.15A5.67,5.67,0,0,0,417.13,615Z"/><path class="cls-3" d="M443.23,616.45a10.53,10.53,0,0,1-3.37-4.17v5.2h-8.5v-1l3.5-.5V579l-3.5-.5v-1h8.5v19.35a10.5,10.5,0,0,1,3.37-4.18,8.46,8.46,0,0,1,5.08-1.52,11.76,11.76,0,0,1,6.25,1.65,11.09,11.09,0,0,1,4.2,4.67,17.44,17.44,0,0,1,0,14.15,11.29,11.29,0,0,1-4.2,4.7,11.6,11.6,0,0,1-6.25,1.68A8.47,8.47,0,0,1,443.23,616.45ZM454.76,607v-5q0-9.66-6.95-9.65a6.75,6.75,0,0,0-4,1.27,8.89,8.89,0,0,0-2.85,3.4,10.77,10.77,0,0,0-1.1,4.63V607a11.49,11.49,0,0,0,1,4.8,8.75,8.75,0,0,0,2.85,3.57,6.82,6.82,0,0,0,4.08,1.33Q454.76,616.73,454.76,607Z"/><path class="cls-3" d="M468.83,616.18a6.72,6.72,0,0,1-2.08-5.35V593.08l-3.5-.5v-1h8.5v19.15a6.71,6.71,0,0,0,1.06,4,3.74,3.74,0,0,0,3.25,1.45,7.47,7.47,0,0,0,4.42-1.53,16.65,16.65,0,0,0,3.77-3.77v-17.8l-3.5-.5v-1h8.5V616l3.5.5v1h-8.5v-4.8a13.25,13.25,0,0,1-4.32,3.9,11,11,0,0,1-5.43,1.4A8.37,8.37,0,0,1,468.83,616.18Z"/><path class="cls-3" d="M499.16,616.23a5.23,5.23,0,0,1-2.75-4.55,3.18,3.18,0,0,1,.77-2.28,2.71,2.71,0,0,1,2.07-.82,2.83,2.83,0,0,1,1.71.5,2.8,2.8,0,0,1,1,1.4,3.71,3.71,0,0,0-1.11,2.55,3.43,3.43,0,0,0,1.4,2.7,5.79,5.79,0,0,0,3.75,1.15,8.72,8.72,0,0,0,5.16-1.43,4.47,4.47,0,0,0,2-3.82,2.54,2.54,0,0,0-.86-2.1,12.17,12.17,0,0,0-3.3-1.6l-7.54-2.75q-4.45-1.6-4.46-5.95a7.59,7.59,0,0,1,2.46-5.83,9.51,9.51,0,0,1,6.75-2.27,11,11,0,0,1,6.07,1.62,5.19,5.19,0,0,1,2.52,4.63,2.77,2.77,0,0,1-.64,1.92,2.2,2.2,0,0,1-1.7.73,2.58,2.58,0,0,1-1.73-.58,2,2,0,0,1-.68-1.57,2.89,2.89,0,0,0,.91-1.08,3.53,3.53,0,0,0,.25-1.37,2.73,2.73,0,0,0-1.23-2.3,6.39,6.39,0,0,0-3.77-.9,9.57,9.57,0,0,0-3.78.67,5.56,5.56,0,0,0-2.38,1.78,3.8,3.8,0,0,0-.8,2.25,2.32,2.32,0,0,0,.88,1.9,12.63,12.63,0,0,0,3.22,1.55l7,2.5a8,8,0,0,1,3.7,2.5,6.49,6.49,0,0,1,1.25,4.15,8.37,8.37,0,0,1-2.3,6.05q-2.29,2.4-7,2.4A12.54,12.54,0,0,1,499.16,616.23Z"/><path class="cls-3" d="M518.85,616.48l3.5-.5V579l-3.5-.5v-1h8.5V597a15,15,0,0,1,4.36-4.28,9.9,9.9,0,0,1,5.39-1.57,8.38,8.38,0,0,1,5.68,1.8,6.7,6.7,0,0,1,2.07,5.35V616l3.5.5v1h-11.5v-1l3-.5v-17.6a6.69,6.69,0,0,0-1.05-4,3.76,3.76,0,0,0-3.25-1.42,7,7,0,0,0-4.42,1.67,18.12,18.12,0,0,0-3.78,4.13V616l3,.5v1h-11.5Z"/><path class="cls-3" d="M550.25,617.48v-1l3.5-.5V579l-3.5-.5v-1h8.5v25.65l11.46-9.4-4.36-1.15v-1h9.4v1l-3.2,1.15-8.3,6.8L575.46,616l2.7.45v1h-11.7v-1l3-.5-9.41-12.4-1.3,1.1V616l3,.5v1Z"/><path class="cls-3" d="M580.85,616.3a6.06,6.06,0,0,1-2.05-5,6.89,6.89,0,0,1,4-6.68,20.21,20.21,0,0,1,9.16-2h3.34v-3.85a11.23,11.23,0,0,0-.57-4,3.56,3.56,0,0,0-1.77-2,7.73,7.73,0,0,0-3.25-.57,5.48,5.48,0,0,0-3.5.92,3,3,0,0,0-1.16,2.48,1.84,1.84,0,0,0,1.41,1.9,3,3,0,0,1-.95,2.2,3.11,3.11,0,0,1-2.25.95,3.18,3.18,0,0,1-2.25-.78,3.05,3.05,0,0,1-.86-2.37,5.26,5.26,0,0,1,2.9-4.65,13.81,13.81,0,0,1,7.25-1.75q10,0,10,8.7v14.3a2.54,2.54,0,0,0,.48,1.67,1.69,1.69,0,0,0,1.37.58,1.74,1.74,0,0,0,1.36-.58,2.33,2.33,0,0,0,.5-1.57h1a3.5,3.5,0,0,1-1.12,2.75,4.58,4.58,0,0,1-3.13,1,5.83,5.83,0,0,1-3.87-1.33,5.24,5.24,0,0,1-1.63-4.12,8.93,8.93,0,0,1-3.67,4A10.72,10.72,0,0,1,586.1,618,8,8,0,0,1,580.85,616.3ZM591.63,615a7,7,0,0,0,2.42-2.33,7.86,7.86,0,0,0,1.2-3.67v-5.2h-3.34c-2.74,0-4.78.6-6.13,1.82a6.56,6.56,0,0,0-2,5.13,5,5,0,0,0,1.3,3.9,5.62,5.62,0,0,0,3.8,1.15A5.71,5.71,0,0,0,591.63,615Z"/></svg>
